<svg version="1.1" id="Layer_1" xmlns="http://www.w3.org/2000/svg" xmlns:xlink="http://www.w3.org/1999/xlink" x="0px" y="0px"
	 width="100%" viewBox="0 0 432 448" enable-background="new 0 0 432 448" xml:space="preserve">
<path fill="#fff" opacity="1.000000" stroke="none" 
	d="
M433.000000,370.531433 
	C431.190826,370.784515 429.381622,370.381165 427.572449,370.381256 
	C390.075806,370.383575 352.579071,370.388702 315.082672,370.506531 
	C307.433044,370.530579 299.795502,371.514771 292.130005,370.595581 
	C287.241913,370.009430 283.353302,367.987640 282.025970,363.042023 
	C280.619843,357.802734 283.820007,354.403046 287.871674,351.996185 
	C303.145721,342.922668 317.175903,332.382782 329.145813,319.120819 
	C340.598694,306.431671 348.587952,291.766418 354.936127,276.073486 
	C355.481079,274.726379 356.275696,273.361938 355.372467,271.323761 
	C345.197784,271.557068 335.095978,273.420502 325.148773,275.946014 
	C291.723724,284.432526 261.965790,300.485443 234.186890,320.535217 
	C214.995697,334.386749 196.483170,349.118439 178.226883,364.160797 
	C172.500793,368.878906 166.371185,371.018921 159.021973,371.000275 
	C112.707909,370.882935 66.393425,370.936981 20.079111,370.895477 
	C17.756977,370.893402 15.425336,370.608276 13.115264,370.318329 
	C8.393354,369.725677 5.545895,366.960907 4.775710,362.338348 
	C3.994205,357.647827 5.404209,353.738647 9.793568,351.336090 
	C13.733273,349.179688 18.064762,348.976837 22.421638,348.968353 
	C57.251835,348.900391 92.082062,348.841919 126.912132,348.733093 
	C128.837021,348.727081 130.879456,349.261292 132.658142,348.165680 
	C132.980881,347.024384 132.194168,346.558807 131.595383,346.047302 
	C102.470078,321.167023 83.178596,290.337494 76.489616,252.421310 
	C69.988022,215.567307 74.637024,180.202789 92.792969,146.982407 
	C110.261658,115.019493 135.158615,90.519585 168.692230,76.628540 
	C226.050720,52.868229 280.023132,60.865635 328.785583,99.191780 
	C359.930359,123.670845 378.121277,156.544769 384.969788,195.381485 
	C390.791809,228.397217 385.536835,260.264984 372.849243,291.115814 
	C364.393402,311.676819 351.550842,329.066406 335.569122,344.303955 
	C334.605743,345.222473 333.639862,346.139984 332.717712,347.098907 
	C332.518158,347.306427 332.502319,347.690704 332.089874,348.934448 
	C365.625183,348.934448 398.844849,348.934448 432.532288,348.967224 
	C433.000000,356.020966 433.000000,363.041901 433.000000,370.531433 
M142.686646,119.179062 
	C128.508728,132.127838 117.012543,147.049820 109.017799,164.597275 
	C98.164352,188.419189 93.154243,213.385544 96.700623,239.358307 
	C102.831436,284.258789 126.921738,317.778320 164.297882,342.442413 
	C167.451065,344.523163 169.396866,344.099640 172.014542,341.694427 
	C185.891235,328.944031 200.846817,317.524689 216.135712,306.535583 
	C238.919205,290.159637 262.831390,275.765045 288.913971,265.196320 
	C311.254364,256.143921 334.249756,249.849121 358.455963,248.563232 
	C360.971069,248.429657 363.326263,247.922638 363.694519,244.466690 
	C366.936554,214.040787 363.914917,184.811890 349.048035,157.318375 
	C323.217224,109.549240 271.047302,80.161972 215.811844,86.263863 
	C188.260895,89.307434 163.872040,99.963989 142.686646,119.179062 
z"/>
<path fill="#fff" opacity="1.000000" stroke="none" 
	d="
M324.150940,188.835052 
	C317.307281,207.727142 297.519775,215.415482 283.978424,213.962021 
	C263.508789,211.764923 250.474716,199.055984 246.508789,180.179443 
	C242.604004,161.593857 256.226044,137.845993 281.174011,133.884628 
	C302.586060,130.484695 323.001740,145.754883 326.435760,167.379318 
	C327.598724,174.702438 326.564819,181.595779 324.150940,188.835052 
M272.493042,162.044601 
	C271.628693,163.452621 270.582214,164.781525 269.930420,166.281891 
	C266.481445,174.220947 269.443573,183.875275 276.694031,188.637787 
	C283.883728,193.360352 294.108643,191.900330 300.273590,185.270782 
	C306.132935,178.969894 306.432709,169.507004 300.997253,162.427872 
	C294.836182,154.403702 281.894958,153.978546 272.493042,162.044601 
z"/>
</svg>